<svg xmlns="http://www.w3.org/2000/svg" xmlns:xlink="http://www.w3.org/1999/xlink" xmlns:inkscape="http://www.inkscape.org/namespaces/inkscape" version="1.1" width="375" height="195" viewBox="0 95 375 195" preserveAspectRatio="xMidYMid meet">
<defs>
<clipPath id="clip_1">
<path transform="matrix(.24,0,0,.24,0,0)" d="M0 0H1562.5V1562.5H0Z" clip-rule="evenodd"/>
</clipPath>
<clipPath id="clip_2">
<path transform="matrix(.24,0,0,.24,0,0)" d="M0 0H1562.5V1562.5H0Z" clip-rule="evenodd"/>
</clipPath>
<clipPath id="clip_3">
<path transform="matrix(.24,0,0,.24,0,0)" d="M0 0H1562.5V1562.5H0Z"/>
</clipPath>
<clipPath id="clip_4">
<path transform="matrix(.24,0,0,.24,0,0)" d="M0 0H1562.5V1562.5H0Z"/>
</clipPath>
<clipPath id="clip_5">
<path transform="matrix(.24,0,0,.24,0,0)" d="M219.27057 582.2987 1201.1571 288.14933 1260.3457 485.72407 278.45918 779.8734 219.27057 582.2987Z"/>
</clipPath>
<clipPath id="clip_6">
<path transform="matrix(.24,0,0,.24,0,0)" d="M219.27057 582.2987 1201.1571 288.14933 1260.3457 485.72407 278.45918 779.8734 219.27057 582.2987Z"/>
</clipPath>
<clipPath id="clip_7">
<path transform="matrix(.24,0,0,.24,0,0)" d="M0 0H1562.5V1562.5H0Z" clip-rule="evenodd"/>
</clipPath>
<clipPath id="clip_8">
<path transform="matrix(.24,0,0,.24,0,0)" d="M0 0H1562.5V1562.5H0Z"/>
</clipPath>
<clipPath id="clip_9">
<path transform="matrix(.24,0,0,.24,0,0)" d="M0 0H1562.5V1562.5H0Z"/>
</clipPath>
<clipPath id="clip_10">
<path transform="matrix(.24,0,0,.24,0,0)" d="M1372.1784 785.04299 399.3346 1107.8434 334.38087 912.0882 1307.2246 589.28787 1372.1784 785.04299Z"/>
</clipPath>
<clipPath id="clip_11">
<path transform="matrix(.24,0,0,.24,0,0)" d="M1372.1784 785.04299 399.3346 1107.8434 334.38087 912.0882 1307.2246 589.28787 1372.1784 785.04299Z"/>
</clipPath>
</defs>
<g clip-path="url(#clip_3)">
<g clip-path="url(#clip_4)">
<g clip-path="url(#clip_5)">
<g clip-path="url(#clip_6)">
<path transform="matrix(.12554164,-.037609236,.037609236,.12554164,14.549316,40.493867)" d="M849 1057.4C849 1057.4 1128.6 961.10006 1401.7 1172.9H1195.1C1195.1 1172.9 1174.7 1132.7001 1122 1106.4 1122 1106.4 1153.2 1134 1166.6 1172.9H1135.4C1135.4 1172.9 1053.2001 1018.5 897.30007 1139.6 897.30007 1139.6 932.00009 1074.2999 1001.30007 1066.7999 1001.3 1066.9 932.8 1042.4 849 1057.4Z" fill="#f98110"/>
<path transform="matrix(.12554164,-.037609236,.037609236,.12554164,14.549316,40.493867)" d="M61 1159.1C179.2 1083.7999 262 1189.2 262 1189.2 262 1189.2 234 1080 400.7 1117.7 567.30007 1155.3999 699.5 1157.8999 699.5 1157.8999 699.5 1157.8999 205 1036.1 301.8 1041.1 398.5 1046.1 538.3 1042.4 538.3 1042.4 407.19999 1018.60006 313.59999 963.30007 313.59999 963.30007 313.59999 963.30007 436.09999 870.4 572.69998 866.60006 709.19998 862.80007 783.39999 998.4 783.39999 998.4 685.6 1021 521.6 1017.2 521.6 1017.2 694.1 1105.1 868.3 969.5 1173.6 1017.2 1399.9 1052.6 1497.3 1133.4 1532.7 1172.9H1939C1910.8 1126.5 1847.9 1098.8 1847.9 1098.8 1881 1108.2001 1916.4 1122.6001 1916.4 1122.6001 1814.3 1007.1001 1670.2001 1020.9001 1670.2001 1020.9001 1704.6001 1036.0001 1737.4 1061.1001 1737.4 1061.1001 1611.6 1000.8001 1374.6001 976.4001 1374.6001 976.4001 1374.6001 976.4001 1186 812.7 816.7 810.8 447.40003 808.89999 324.40003 933.2 238.40003 984.69998 152.40003 1036.2 76.10002 958.2999 80.400028 1003.49996 84.70003 1048.7 130.90003 1033.6 103.00002 1061.2 75 1088.8 61 1159.1 61 1159.1ZM971.5 842.8C1132.2 856.6 1327.3 973.3 1327.3 973.3 1327.3 973.3 1114.5 963.3 974.7001 973.3 835.00009 983.3 850.00009 984.6 799.50009 938.2 749.00009 891.8 728.60006 881.7 708.10006 866.7 687.7 851.6 810.8 829 971.5 842.8Z" fill="#f98110"/>
</g>
</g>
</g>
</g>
<g clip-path="url(#clip_7)">
<text fill="#f98110" transform="matrix(.7150163 -.22638828 .22638828 .7150163 87.07043 177.97859)" font-size="44.42" font-family="Manrope, Inter, Arial, sans-serif" font-weight="800" letter-spacing="2" text-anchor="middle"><tspan y="41" x="128">JEDI DRIVE</tspan></text>
</g>
<g clip-path="url(#clip_8)">
<g clip-path="url(#clip_9)">
<g clip-path="url(#clip_10)">
<g clip-path="url(#clip_11)">
<path transform="matrix(-.12438545,.04127248,-.04127248,-.12438545,370.29115,286.50956)" d="M849 1057.4C849 1057.4 1128.6 961.10006 1401.7 1172.9H1195.1C1195.1 1172.9 1174.7 1132.7001 1122 1106.4 1122 1106.4 1153.2 1134 1166.6 1172.9H1135.4C1135.4 1172.9 1053.2001 1018.5 897.30007 1139.6 897.30007 1139.6 932.00009 1074.2999 1001.30007 1066.7999 1001.3 1066.9 932.8 1042.4 849 1057.4Z" fill="#f98110"/>
<path transform="matrix(-.12438545,.04127248,-.04127248,-.12438545,370.29115,286.50956)" d="M61 1159.1C179.2 1083.7999 262 1189.2 262 1189.2 262 1189.2 234 1080 400.7 1117.7 567.30007 1155.3999 699.5 1157.8999 699.5 1157.8999 699.5 1157.8999 205 1036.1 301.8 1041.1 398.5 1046.1 538.3 1042.4 538.3 1042.4 407.19999 1018.60006 313.59999 963.30007 313.59999 963.30007 313.59999 963.30007 436.09999 870.4 572.69998 866.60006 709.19998 862.80007 783.39999 998.4 783.39999 998.4 685.6 1021 521.6 1017.2 521.6 1017.2 694.1 1105.1 868.3 969.5 1173.6 1017.2 1399.9 1052.6 1497.3 1133.4 1532.7 1172.9H1939C1910.8 1126.5 1847.9 1098.8 1847.9 1098.8 1881 1108.2001 1916.4 1122.6001 1916.4 1122.6001 1814.3 1007.1001 1670.2001 1020.9001 1670.2001 1020.9001 1704.6001 1036.0001 1737.4 1061.1001 1737.4 1061.1001 1611.6 1000.8001 1374.6001 976.4001 1374.6001 976.4001 1374.6001 976.4001 1186 812.7 816.7 810.8 447.40003 808.89999 324.40003 933.2 238.40003 984.69998 152.40003 1036.2 76.10002 958.2999 80.400028 1003.49996 84.70003 1048.7 130.90003 1033.6 103.00002 1061.2 75 1088.8 61 1159.1 61 1159.1ZM971.5 842.8C1132.2 856.6 1327.3 973.3 1327.3 973.3 1327.3 973.3 1114.5 963.3 974.7001 973.3 835.00009 983.3 850.00009 984.6 799.50009 938.2 749.00009 891.8 728.60006 881.7 708.10006 866.7 687.7 851.6 810.8 829 971.5 842.8Z" fill="#f98110"/>
</g>
</g>
</g>
</g>
<path transform="matrix(1,0,0,-1,0,383.03999)" d="M52.624673 195.54H302.71479V313.9226H52.624673Z" fill-opacity="0"/>
<path transform="matrix(1,0,0,-1,0,383.03999)" d="M80.02179 117.11203H329.33363V241.93505H80.02179Z" fill-opacity="0"/>
</svg>
